<svg version="1.1" xmlns="http://www.w3.org/2000/svg" xmlns:xlink="http://www.w3.org/1999/xlink" x="0px" y="0px" viewBox="0 0 180 47.8" enable-background="new 0 0 180 47.8" xml:space="preserve">
	<path d="M0.7,0.5h24.2C29.2,0.4,33.2,2,36.2,5c2.9,2.9,4.5,6.8,4.4,10.9c0,1.8-0.3,3.6-0.8,5.2c-0.4,1.4-1.1,2.7-2,3.9
		c-0.7,0.9-1.5,1.8-2.4,2.6c-0.6,0.6-1.3,1.1-2,1.5l-0.8,0.4l9.8,17.6H31.9l-8.9-16.3H10.7v16.3h-10L0.7,0.5L0.7,0.5z M29.1,11.3
		c-1.2-1.2-2.8-1.8-4.4-1.7h-14v12.2h14c1.7,0.1,3.3-0.6,4.4-1.7c1.2-1.1,1.8-2.7,1.7-4.3C30.9,14.1,30.3,12.5,29.1,11.3"/>
    <path d="M72.9,0.5C77.3,0.4,81.5,2,84.6,5c3.1,2.9,4.8,6.9,4.7,11.2c0.1,4.2-1.7,8.3-4.7,11.2c-3.2,3-7.4,4.6-11.7,4.4H57.6v15.3
		h-9.8V0.7h25.1V0.5z M57.6,9.5v13.3h14.9c1.8,0,3.6-0.6,5-1.9c2.6-2.5,2.7-6.6,0.2-9.2c-0.1-0.1-0.1-0.2-0.2-0.2
		c-1.3-1.3-3.1-2-5-1.9H57.6V9.5z"/>
    <path d="M157,42.5c0-1.8-1-3.4-2.6-4.2c-0.1-0.1-0.4-0.1-0.5-0.3c-1.2-0.5-2.2-1.3-3.1-2.3c-2-2.1-3-4.9-3-7.8V0.5H138V28
		c-0.1,5.3,1.9,10.4,5.6,14.1c2,2,4.4,3.5,7,4.4c0.3,0.1,0.4,0.1,0.7,0.3c0.3,0.1,0.7,0.2,1.1,0.1c2.4,0.2,4.4-1.6,4.6-3.9
		C157,42.8,157,42.7,157,42.5 M179.6,28.1V0.7h-9.8v27.4c0.1,2.9-1,5.7-3,7.8c-0.9,0.9-1.9,1.7-3.1,2.3c-0.2,0-0.4,0.1-0.5,0.3
		c-1.6,0.8-2.5,2.4-2.6,4.2c0,2.5,2,4.6,4.5,4.6c0,0,0.1,0,0.1,0c0.4,0,0.7,0,1.1-0.1c0.2,0,0.5-0.1,0.7-0.3c2.6-1,5-2.5,7-4.4
		C177.7,38.6,179.7,33.4,179.6,28.1"/>
    <path d="M132.7,0.5v9h-15.9v37.5H107V9.5H91.1v-9H132.7z"/>
</svg>
